<svg width="24" height="24" viewBox="0 0 24 24" fill="none" xmlns="http://www.w3.org/2000/svg">
<g filter="url(#filter0_d_16860_2)">
<rect x="4" width="16" height="16" rx="4" fill="#EEEEEE"/>
<path d="M17.9858 9.52944L16.961 5.31324C16.8897 4.84916 16.4457 4 15.2563 4C15.1775 4 15.1019 4.03121 15.0461 4.08676C14.9903 4.14231 14.959 4.21766 14.959 4.29622C14.959 4.37478 14.9903 4.45013 15.0461 4.50568C15.1019 4.56123 15.1775 4.59244 15.2563 4.59244C16.2177 4.59244 16.3604 5.32904 16.3743 5.41001L17.3178 9.30036H16.9035C16.8607 8.96099 16.7446 8.63489 16.5632 8.34445C16.3819 8.05401 16.1396 7.80613 15.853 7.61783C15.7632 7.65548 15.6866 7.71863 15.6327 7.79941C15.5787 7.88019 15.5499 7.97501 15.5497 8.07204C15.5508 8.08913 15.5508 8.10628 15.5497 8.12338C15.7907 8.28808 15.9886 8.50802 16.1265 8.76473C16.2645 9.02143 16.3386 9.30739 16.3426 9.59855C16.3414 9.69788 16.3321 9.79694 16.3148 9.89477C16.2499 10.3143 16.0365 10.6968 15.7131 10.9731C15.3897 11.2495 14.9777 11.4014 14.5517 11.4014C14.1256 11.4014 13.7137 11.2495 13.3903 10.9731C13.0669 10.6968 12.8534 10.3143 12.7885 9.89477C12.7713 9.79694 12.762 9.69788 12.7608 9.59855C12.7639 9.32458 12.8282 9.05474 12.9491 8.80864C12.8488 8.80163 12.755 8.75694 12.6866 8.68362C12.6181 8.61029 12.5802 8.51381 12.5804 8.41368C12.5807 8.37781 12.5673 8.34318 12.5428 8.31691C12.351 8.61503 12.2296 8.95266 12.1879 9.30431H11.8193C11.756 8.72347 11.4796 8.18639 11.0432 7.79618C10.6067 7.40597 10.041 7.19014 9.45453 7.19014C8.8681 7.19014 8.30234 7.40597 7.86589 7.79618C7.42943 8.18639 7.15304 8.72347 7.0898 9.30431H6.67949L7.62498 5.41001C7.63688 5.32904 7.78554 4.59244 8.74293 4.59244C8.82178 4.59244 8.89741 4.56123 8.95317 4.50568C9.00893 4.45013 9.04025 4.37478 9.04025 4.29622C9.04025 4.21766 9.00893 4.14231 8.95317 4.08676C8.89741 4.03121 8.82178 4 8.74293 4C7.55362 4 7.10962 4.84916 7.03826 5.31324L6.01149 9.52944C5.99879 9.57235 5.99658 9.61767 6.00504 9.6616C6.01351 9.70554 6.0324 9.74682 6.06014 9.782C6.08789 9.81718 6.12368 9.84523 6.16452 9.86382C6.20537 9.88241 6.25009 9.89099 6.29494 9.88885H7.08781C7.10394 10.011 7.12912 10.1318 7.16314 10.2502C7.17566 10.2286 7.18248 10.2041 7.18296 10.1791C7.18296 10.0744 7.22472 9.97394 7.29907 9.89987C7.37342 9.8258 7.47425 9.78419 7.57939 9.78419C7.61158 9.78461 7.64357 9.78926 7.67454 9.79801C7.6659 9.72922 7.66127 9.65998 7.66066 9.59066C7.66119 9.49138 7.66981 9.39232 7.68643 9.29444C7.74993 8.87357 7.96291 8.48939 8.28665 8.21171C8.61038 7.93404 9.02338 7.78133 9.45056 7.78133C9.87774 7.78133 10.2907 7.93404 10.6145 8.21171C10.9382 8.48939 11.1512 8.87357 11.2147 9.29444C11.2313 9.39232 11.2399 9.49138 11.2405 9.59066C11.2373 10.0611 11.0484 10.5113 10.7145 10.844C10.3806 11.1766 9.92868 11.3649 9.45651 11.368C9.07006 11.3733 8.69235 11.2534 8.38019 11.0263C8.30866 11.0882 8.21725 11.1226 8.12251 11.1231C8.08342 11.1236 8.04612 11.1395 8.01867 11.1672C7.99121 11.1949 7.97582 11.2323 7.97583 11.2712C7.97529 11.3264 7.96313 11.3809 7.94015 11.4312C8.36421 11.7813 8.89781 11.9727 9.44858 11.9723C10.0304 11.9748 10.5929 11.7647 11.0298 11.3819C11.4666 10.9991 11.7475 10.47 11.8193 9.89477H12.18C12.2453 10.4738 12.5224 11.0086 12.9585 11.397C13.3945 11.7853 13.9589 12 14.5438 12C15.1286 12 15.693 11.7853 16.129 11.397C16.5651 11.0086 16.8422 10.4738 16.9075 9.89477H17.7004C17.7462 9.89807 17.7921 9.89006 17.8341 9.87145C17.8761 9.85284 17.9128 9.82421 17.9411 9.78808C17.9693 9.75196 17.9881 9.70946 17.9959 9.66434C18.0037 9.61923 18.0003 9.57289 17.9858 9.52944Z" fill="black"/>
</g>
<defs>
<filter id="filter0_d_16860_2" x="0" y="0" width="24" height="24" filterUnits="userSpaceOnUse" color-interpolation-filters="sRGB">
<feFlood flood-opacity="0" result="BackgroundImageFix"/>
<feColorMatrix in="SourceAlpha" type="matrix" values="0 0 0 0 0 0 0 0 0 0 0 0 0 0 0 0 0 0 127 0" result="hardAlpha"/>
<feOffset dy="4"/>
<feGaussianBlur stdDeviation="2"/>
<feComposite in2="hardAlpha" operator="out"/>
<feColorMatrix type="matrix" values="0 0 0 0 0 0 0 0 0 0 0 0 0 0 0 0 0 0 0.25 0"/>
<feBlend mode="normal" in2="BackgroundImageFix" result="effect1_dropShadow_16860_2"/>
<feBlend mode="normal" in="SourceGraphic" in2="effect1_dropShadow_16860_2" result="shape"/>
</filter>
</defs>
</svg>
