<svg width="40" height="40" viewBox="0 0 40 40" fill="none" xmlns="http://www.w3.org/2000/svg">
<g filter="url(#filter0_d_16860_4)">
<rect x="4" width="32" height="32" rx="8" fill="#EEEEEE"/>
<path d="M31.9716 19.0589L29.922 10.6265C29.7793 9.69833 28.8913 8 26.5127 8C26.355 8 26.2037 8.06242 26.0922 8.17352C25.9807 8.28463 25.918 8.43531 25.918 8.59244C25.918 8.74956 25.9807 8.90025 26.0922 9.01136C26.2037 9.12246 26.355 9.18488 26.5127 9.18488C28.4354 9.18488 28.7208 10.6581 28.7486 10.82L30.6356 18.6007H29.8071C29.7214 17.922 29.4892 17.2698 29.1265 16.6889C28.7638 16.108 28.2792 15.6123 27.706 15.2357C27.5265 15.311 27.3732 15.4373 27.2653 15.5988C27.1574 15.7604 27.0997 15.95 27.0994 16.1441C27.1016 16.1783 27.1016 16.2126 27.0994 16.2468C27.5815 16.5762 27.9771 17.016 28.2531 17.5295C28.529 18.0429 28.6772 18.6148 28.6852 19.1971C28.6828 19.3958 28.6642 19.5939 28.6297 19.7895C28.4999 20.6286 28.073 21.3936 27.4262 21.9463C26.7794 22.499 25.9555 22.8028 25.1034 22.8028C24.2513 22.8028 23.4273 22.499 22.7805 21.9463C22.1338 21.3936 21.7069 20.6286 21.5771 19.7895C21.5425 19.5939 21.524 19.3958 21.5216 19.1971C21.5278 18.6492 21.6564 18.1095 21.8982 17.6173C21.6977 17.6033 21.51 17.5139 21.3731 17.3672C21.2362 17.2206 21.1603 17.0276 21.1608 16.8274C21.1615 16.7556 21.1345 16.6864 21.0855 16.6338C20.7019 17.2301 20.4593 17.9053 20.3759 18.6086H19.6385C19.512 17.4469 18.9593 16.3728 18.0863 15.5924C17.2134 14.8119 16.0819 14.3803 14.9091 14.3803C13.7362 14.3803 12.6047 14.8119 11.7318 15.5924C10.8589 16.3728 10.3061 17.4469 10.1796 18.6086H9.35897L11.25 10.82C11.2738 10.6581 11.5711 9.18488 13.4859 9.18488C13.6436 9.18488 13.7948 9.12246 13.9063 9.01136C14.0179 8.90025 14.0805 8.74956 14.0805 8.59244C14.0805 8.43531 14.0179 8.28463 13.9063 8.17352C13.7948 8.06242 13.6436 8 13.4859 8C11.1072 8 10.2192 9.69833 10.0765 10.6265L8.02299 19.0589C7.99758 19.1447 7.99316 19.2353 8.01009 19.3232C8.02702 19.4111 8.0648 19.4936 8.12029 19.564C8.17578 19.6344 8.24736 19.6905 8.32905 19.7276C8.41074 19.7648 8.50018 19.782 8.58989 19.7777H10.1756C10.2079 20.022 10.2582 20.2636 10.3263 20.5005C10.3513 20.4572 10.365 20.4083 10.3659 20.3583C10.3659 20.1488 10.4494 19.9479 10.5981 19.7997C10.7468 19.6516 10.9485 19.5684 11.1588 19.5684C11.2232 19.5692 11.2871 19.5785 11.3491 19.596C11.3318 19.4584 11.3225 19.32 11.3213 19.1813C11.3224 18.9828 11.3396 18.7846 11.3729 18.5889C11.4999 17.7471 11.9258 16.9788 12.5733 16.4234C13.2208 15.8681 14.0468 15.5627 14.9011 15.5627C15.7555 15.5627 16.5815 15.8681 17.229 16.4234C17.8764 16.9788 18.3024 17.7471 18.4294 18.5889C18.4626 18.7846 18.4799 18.9828 18.4809 19.1813C18.4747 20.1221 18.0968 21.0227 17.429 21.688C16.7613 22.3532 15.8574 22.7297 14.913 22.7359C14.1401 22.7465 13.3847 22.5067 12.7604 22.0527C12.6173 22.1765 12.4345 22.2451 12.245 22.2462C12.1668 22.2472 12.0922 22.2789 12.0373 22.3343C11.9824 22.3898 11.9516 22.4645 11.9517 22.5424C11.9506 22.6529 11.9263 22.7618 11.8803 22.8623C12.7284 23.5626 13.7956 23.9455 14.8972 23.9445C16.0608 23.9495 17.1858 23.5294 18.0596 22.7638C18.9333 21.9981 19.495 20.94 19.6385 19.7895H20.36C20.4906 20.9477 21.0449 22.0172 21.917 22.7939C22.789 23.5706 23.9178 24 25.0875 24C26.2573 24 27.386 23.5706 28.2581 22.7939C29.1301 22.0172 29.6844 20.9477 29.815 19.7895H31.4007C31.4924 19.7961 31.5843 19.7801 31.6682 19.7429C31.7522 19.7057 31.8257 19.6484 31.8821 19.5762C31.9386 19.5039 31.9763 19.4189 31.9919 19.3287C32.0075 19.2385 32.0005 19.1458 31.9716 19.0589Z" fill="black"/>
</g>
<defs>
<filter id="filter0_d_16860_4" x="0" y="0" width="40" height="40" filterUnits="userSpaceOnUse" color-interpolation-filters="sRGB">
<feFlood flood-opacity="0" result="BackgroundImageFix"/>
<feColorMatrix in="SourceAlpha" type="matrix" values="0 0 0 0 0 0 0 0 0 0 0 0 0 0 0 0 0 0 127 0" result="hardAlpha"/>
<feOffset dy="4"/>
<feGaussianBlur stdDeviation="2"/>
<feComposite in2="hardAlpha" operator="out"/>
<feColorMatrix type="matrix" values="0 0 0 0 0 0 0 0 0 0 0 0 0 0 0 0 0 0 0.25 0"/>
<feBlend mode="normal" in2="BackgroundImageFix" result="effect1_dropShadow_16860_4"/>
<feBlend mode="normal" in="SourceGraphic" in2="effect1_dropShadow_16860_4" result="shape"/>
</filter>
</defs>
</svg>
