<svg xmlns="http://www.w3.org/2000/svg">

  <symbol  xmlns="http://www.w3.org/2000/svg" viewBox="0 0 147 40" id="main-logo-desktop">
    <path d="M72.1933 18.4249C72.1932 18.0921 72.3255 17.7726 72.562 17.5345C72.7985 17.2965 73.1204 17.1589 73.4588 17.1511H80.6703C85.7826 17.1511 89.1473 19.827 89.1473 24.211V24.2703C89.1473 29.069 85.0695 31.5573 80.2484 31.5573H74.7544V38.2913C74.7702 38.466 74.7488 38.6421 74.6916 38.8082C74.6344 38.9743 74.5426 39.1269 74.4222 39.2563C74.3017 39.3856 74.1552 39.489 73.992 39.5596C73.8287 39.6303 73.6522 39.6668 73.4738 39.6668C73.2954 39.6668 73.119 39.6303 72.9557 39.5596C72.7925 39.489 72.6459 39.3856 72.5255 39.2563C72.405 39.1269 72.3133 38.9743 72.2561 38.8082C72.1989 38.6421 72.1775 38.466 72.1933 38.2913V18.4249ZM80.3489 29.2863C84.0952 29.2863 86.556 27.3115 86.556 24.3493V24.29C86.556 21.1106 84.1354 19.4616 80.5297 19.4616H74.8047V29.2468L80.3489 29.2863Z"></path>
    <path d="M94.0186 18.2669C94.0028 18.0922 94.0242 17.9162 94.0814 17.7501C94.1386 17.5839 94.2304 17.4313 94.3508 17.302C94.4713 17.1726 94.6178 17.0693 94.781 16.9986C94.9443 16.9279 95.1208 16.8914 95.2992 16.8914C95.4776 16.8914 95.654 16.9279 95.8173 16.9986C95.9806 17.0693 96.1271 17.1726 96.2475 17.302C96.368 17.4313 96.4597 17.5839 96.5169 17.7501C96.5741 17.9162 96.5955 18.0922 96.5798 18.2669V38.2913C96.5955 38.466 96.5741 38.642 96.5169 38.8082C96.4597 38.9743 96.368 39.1269 96.2475 39.2563C96.1271 39.3856 95.9806 39.489 95.8173 39.5596C95.654 39.6303 95.4776 39.6668 95.2992 39.6668C95.1208 39.6668 94.9443 39.6303 94.781 39.5596C94.6178 39.489 94.4713 39.3856 94.3508 39.2563C94.2304 39.1269 94.1386 38.9743 94.0814 38.8082C94.0242 38.642 94.0028 38.466 94.0186 38.2913V18.2669Z"></path>
    <path d="M103.199 18.2965C103.206 17.9699 103.343 17.6588 103.579 17.4287C103.815 17.1986 104.132 17.0673 104.464 17.0623H104.816C105.077 17.0675 105.332 17.1372 105.559 17.2649C105.785 17.3925 105.975 17.5741 106.111 17.7929L119.862 35.0231V18.2373C119.862 17.9125 119.993 17.6011 120.226 17.3715C120.46 17.1419 120.777 17.0129 121.107 17.0129C121.437 17.0129 121.754 17.1419 121.988 17.3715C122.221 17.6011 122.352 17.9125 122.352 18.2373V38.3308C122.358 38.4836 122.332 38.6359 122.275 38.7784C122.219 38.9209 122.134 39.0506 122.025 39.1596C121.916 39.2687 121.785 39.3547 121.641 39.4125C121.497 39.4704 121.343 39.4987 121.187 39.496H121.057C120.79 39.4779 120.531 39.3989 120.301 39.2652C120.071 39.1314 119.876 38.9468 119.731 38.7258L105.67 21.0908V38.3308C105.667 38.6491 105.541 38.9544 105.317 39.184C105.093 39.4135 104.788 39.5499 104.464 39.5651C104.136 39.5599 103.823 39.4272 103.593 39.1961C103.363 38.9649 103.236 38.6539 103.239 38.3308V18.2965H103.199Z"></path>
    <path d="M128.74 18.2669C128.724 18.0922 128.746 17.9162 128.803 17.7501C128.86 17.5839 128.952 17.4313 129.072 17.302C129.193 17.1726 129.339 17.0693 129.503 16.9986C129.666 16.9279 129.842 16.8914 130.021 16.8914C130.199 16.8914 130.376 16.9279 130.539 16.9986C130.702 17.0693 130.849 17.1726 130.969 17.302C131.09 17.4313 131.181 17.5839 131.239 17.7501C131.296 17.9162 131.317 18.0922 131.301 18.2669V30.4415L144.198 17.4375C144.462 17.1684 144.822 17.0094 145.202 16.9931C145.531 17.0057 145.842 17.1418 146.072 17.3732C146.302 17.6046 146.433 17.9139 146.438 18.2373C146.43 18.4054 146.39 18.5706 146.317 18.7231C146.245 18.8756 146.142 19.0125 146.016 19.1259L137.981 26.9461L146.648 37.3731C146.875 37.631 147 37.9604 147 38.3012C146.996 38.472 146.958 38.6402 146.887 38.7964C146.817 38.9525 146.716 39.0934 146.59 39.2109C146.464 39.3284 146.315 39.4202 146.153 39.481C145.991 39.5418 145.818 39.5703 145.644 39.5651C145.442 39.557 145.245 39.5006 145.07 39.4008C144.895 39.3011 144.747 39.1609 144.64 38.9924L136.183 28.6346L131.301 33.4333V38.2716C131.301 38.4363 131.268 38.5993 131.204 38.7515C131.14 38.9036 131.046 39.0419 130.928 39.1583C130.809 39.2747 130.669 39.3671 130.514 39.4301C130.359 39.4932 130.193 39.5256 130.026 39.5256C129.858 39.5256 129.692 39.4932 129.538 39.4301C129.383 39.3671 129.242 39.2747 129.124 39.1583C129.005 39.0419 128.911 38.9036 128.847 38.7515C128.783 38.5993 128.75 38.4363 128.75 38.2716V18.2669H128.74Z"></path>
    <path d="M98.9401 9.74563C97.9749 9.74563 97.0491 9.36936 96.3656 8.69932C95.6822 8.02927 95.2969 7.12014 95.2942 6.17125C95.2942 7.11923 94.9111 8.02839 94.2293 8.69872C93.5474 9.36905 92.6226 9.74563 91.6583 9.74563C92.6235 9.74825 93.5483 10.127 94.2299 10.7989C94.9115 11.4708 95.2942 12.381 95.2942 13.3299C95.2969 12.3801 95.6818 11.4699 96.365 10.7983C97.0482 10.1267 97.974 9.74824 98.9401 9.74563V9.74563Z" fill="#D22856"></path>
    <path d="M43.287 19.0667C43.5381 19.0667 43.7792 19.0667 44.0202 19.0667C43.8019 18.6988 43.4897 18.3933 43.1145 18.1803C42.7393 17.9673 42.3141 17.8542 41.8809 17.8522C41.4627 17.8519 41.055 17.7233 40.7147 17.4843C40.3745 17.2454 40.1185 16.908 39.9826 16.5192C39.2588 16.7245 38.5561 16.9955 37.8834 17.3289H38.0743C38.607 17.3289 39.118 17.5369 39.4947 17.9073C39.8714 18.2776 40.083 18.7799 40.083 19.3037C40.088 19.399 40.088 19.4946 40.083 19.59C41.109 19.2225 42.1953 19.0451 43.287 19.0667V19.0667Z"></path>
    <path d="M60.7332 27.6472L55.5406 6.56621C55.179 4.24582 52.9291 0 46.9028 0C46.5033 0 46.1201 0.156044 45.8375 0.433804C45.555 0.711564 45.3962 1.08829 45.3962 1.4811C45.3962 1.87391 45.555 2.25063 45.8375 2.52839C46.1201 2.80615 46.5033 2.9622 46.9028 2.9622C51.7741 2.9622 52.4973 6.6452 52.5676 7.05003L57.3485 26.5018H55.2493C55.0321 24.805 54.4439 23.1744 53.525 21.7222C52.6061 20.2701 51.3783 19.0307 49.926 18.0892C49.4712 18.2774 49.0829 18.5932 48.8096 18.9971C48.5363 19.401 48.3901 19.8751 48.3893 20.3602C48.3948 20.4457 48.3948 20.5314 48.3893 20.6169C49.6107 21.4404 50.6131 22.5401 51.3122 23.8236C52.0113 25.1072 52.3867 26.537 52.4069 27.9928C52.4008 28.4894 52.3538 28.9847 52.2663 29.4739C51.9374 31.5714 50.8559 33.484 49.2173 34.8657C47.5786 36.2474 45.4911 37.007 43.3322 37.007C41.1734 37.007 39.0859 36.2474 37.4472 34.8657C35.8086 33.484 34.727 31.5714 34.3982 29.4739C34.3107 28.9847 34.2637 28.4894 34.2576 27.9928C34.2733 26.6229 34.5993 25.2737 35.2118 24.0432C34.7037 24.0081 34.2282 23.7847 33.8814 23.4181C33.5346 23.0515 33.3424 22.569 33.3436 22.0684C33.3453 21.889 33.277 21.7159 33.1528 21.5846C32.181 23.0752 31.5662 24.7633 31.3549 26.5215H29.4868C29.1663 23.6174 27.7658 20.9319 25.5542 18.9809C23.3427 17.0298 20.4759 15.9507 17.5044 15.9507C14.5329 15.9507 11.6662 17.0298 9.45463 18.9809C7.24307 20.9319 5.84259 23.6174 5.5221 26.5215H3.44302L8.23394 7.05003C8.29421 6.6452 9.0475 2.9622 13.8987 2.9622C14.2983 2.9622 14.6815 2.80615 14.964 2.52839C15.2465 2.25063 15.4053 1.87391 15.4053 1.4811C15.4053 1.08829 15.2465 0.711564 14.964 0.433804C14.6815 0.156044 14.2983 0 13.8987 0C7.87236 0 5.62254 4.24582 5.26096 6.56621L0.0582358 27.6472C-0.00612168 27.8617 -0.0173251 28.0883 0.0255611 28.308C0.0684473 28.5277 0.164178 28.7341 0.304759 28.91C0.44534 29.0859 0.62669 29.2262 0.833664 29.3191C1.04064 29.4121 1.26723 29.455 1.49451 29.4442H5.51206C5.59378 30.055 5.72135 30.659 5.89372 31.2512C5.95717 31.1429 5.99172 31.0206 5.99416 30.8957C5.99416 30.372 6.2058 29.8697 6.58252 29.4993C6.95923 29.129 7.47017 28.9209 8.00293 28.9209C8.16603 28.9231 8.32812 28.9463 8.48504 28.99C8.44128 28.6461 8.41781 28.2999 8.41473 27.9533C8.41742 27.4569 8.46109 26.9616 8.5453 26.4722C8.86708 24.3679 9.94626 22.4469 11.5867 21.0586C13.2271 19.6702 15.3198 18.9066 17.4843 18.9066C19.6489 18.9066 21.7416 19.6702 23.382 21.0586C25.0224 22.4469 26.1016 24.3679 26.4234 26.4722C26.5076 26.9616 26.5513 27.4569 26.554 27.9533C26.5382 30.3054 25.5807 32.5567 23.8889 34.2199C22.1971 35.8831 19.907 36.8243 17.5145 36.8399C15.5563 36.8663 13.6424 36.2668 12.0607 35.1317C11.6982 35.4411 11.235 35.6128 10.755 35.6155C10.5569 35.6181 10.3679 35.6973 10.2288 35.8359C10.0897 35.9745 10.0117 36.1613 10.0117 36.356C10.009 36.6321 9.94739 36.9046 9.83092 37.1558C11.9797 38.9066 14.6835 39.8636 17.4743 39.8613C20.4223 39.8738 23.2728 38.8236 25.4864 36.9095C27.7 34.9953 29.1232 32.35 29.4868 29.4739H31.3147C31.6456 32.3691 33.0499 35.0431 35.2593 36.9848C37.4688 38.9266 40.3285 40 43.2921 40C46.2557 40 49.1154 38.9266 51.3248 36.9848C53.5343 35.0431 54.9385 32.3691 55.2694 29.4739H59.2869C59.5191 29.4904 59.7519 29.4503 59.9647 29.3573C60.1774 29.2642 60.3635 29.121 60.5065 28.9404C60.6495 28.7598 60.7451 28.5473 60.7846 28.3217C60.8241 28.0961 60.8065 27.8645 60.7332 27.6472V27.6472Z"></path>
    <path d="M50.9203 15.9169C50.3273 15.9182 49.7398 15.8045 49.1915 15.5822C48.6432 15.36 48.1448 15.0337 47.725 14.6219C47.3052 14.21 46.9721 13.7209 46.7448 13.1823C46.5176 12.6438 46.4006 12.0665 46.4006 11.4835C46.3979 12.6602 45.9206 13.7878 45.0733 14.619C44.2259 15.4501 43.0778 15.9169 41.8809 15.9169C43.0788 15.9195 44.2268 16.3885 45.0739 17.2212C45.9209 18.0539 46.3979 19.1825 46.4006 20.3602C46.4006 19.1817 46.8768 18.0516 47.7244 17.2183C48.572 16.385 49.7216 15.9169 50.9203 15.9169V15.9169Z" fill="#D22856"></path>
    <path d="M38.0743 19.3826C37.3417 19.3826 36.6392 19.0966 36.1212 18.5873C35.6032 18.0781 35.3122 17.3875 35.3122 16.6673C35.3122 17.3857 35.0226 18.0749 34.5068 18.5839C33.9909 19.0928 33.291 19.38 32.5602 19.3826C33.2901 19.3826 33.99 19.6677 34.5062 20.1751C35.0223 20.6824 35.3122 21.3706 35.3122 22.0881C35.3149 21.3697 35.607 20.6816 36.1247 20.1745C36.6424 19.6674 37.3435 19.3826 38.0743 19.3826V19.3826Z" fill="#D22856"></path>
    <path d="M10.7851 33.6407C10.0561 33.6355 9.35868 33.3471 8.84503 32.8384C8.33138 32.3298 8.04314 31.6421 8.04316 30.9253C8.04316 31.6438 7.75354 32.333 7.23772 32.8419C6.7219 33.3508 6.02194 33.6381 5.29114 33.6407C6.02194 33.6433 6.7219 33.9305 7.23772 34.4395C7.75354 34.9484 8.04316 35.6376 8.04316 36.356C8.04314 35.6393 8.33138 34.9516 8.84503 34.4429C9.35868 33.9343 10.0561 33.6459 10.7851 33.6407V33.6407Z" ></path>
  </symbol>

  <symbol fill="none" xmlns="http://www.w3.org/2000/svg" viewBox="0 0 47 56" id="apple-logo">
    <path d="M39.2449 29.7391C39.2544 32.1546 39.994 34.5144 41.3723 36.5268C42.7506 38.5393 44.7071 40.1162 47 41.0627C46.0779 43.8922 44.7301 46.5744 43.0003 49.0227C40.5985 52.4356 38.0949 55.8386 34.1562 55.9273C30.2176 56.0161 29.0676 53.708 24.6303 53.708C20.193 53.708 18.8292 55.8583 15.1654 55.9964C11.5016 56.1345 8.47889 52.2778 6.07705 48.8846C1.1207 41.98 -2.67543 29.246 2.41322 20.6842C3.60995 18.6123 5.34099 16.8769 7.43708 15.6476C9.53317 14.4183 11.9225 13.7373 14.3716 13.6711C18.0964 13.6021 21.6178 16.0976 23.8975 16.0976C26.1772 16.0976 30.4619 13.0892 34.9602 13.533C37.0437 13.6063 39.0815 14.1457 40.9142 15.1091C42.7468 16.0725 44.3247 17.4337 45.5243 19.0863C45.2495 19.254 39.2144 22.657 39.2754 29.7391H39.2449ZM31.9783 8.93654C34.1591 6.45976 35.2387 3.24645 34.9806 0C31.6761 0.302095 28.6167 1.81996 26.4317 4.2414C24.5692 6.33251 22.9307 9.68618 23.3785 12.9018C26.625 13.1484 29.9327 11.3038 31.9478 8.95627" fill="white"></path>
  </symbol>

   <symbol fill="none" xmlns="http://www.w3.org/2000/svg" viewBox="0 0 43 47" id="android-logo">
    <path d="M34.8864 14.0617H8.11359C8.11359 14.1718 8.11359 14.282 8.11359 14.3922V33.1955C8.10298 34.1078 8.44648 34.99 9.0745 35.6633C9.70251 36.3367 10.5681 36.7508 11.496 36.8219V44.2751C11.5402 45.0122 11.8701 45.7048 12.4181 46.2114C12.9661 46.7179 13.6909 47 14.444 47C15.1972 47 15.9219 46.7179 16.4699 46.2114C17.0179 45.7048 17.3478 45.0122 17.3921 44.2751V36.842H25.6283V44.2751C25.6726 45.0122 26.0025 45.7048 26.5505 46.2114C27.0985 46.7179 27.8232 47 28.5764 47C29.3296 47 30.0543 46.7179 30.6023 46.2114C31.1503 45.7048 31.4802 45.0122 31.5245 44.2751V36.8219C32.4532 36.7509 33.32 36.3371 33.9496 35.664C34.5793 34.991 34.925 34.1088 34.917 33.1955V14.4023C34.9068 14.2921 34.8966 14.1819 34.8864 14.0617Z" fill="#A4C639"></path>
    <path d="M2.95318 15.7446C3.73371 15.7446 4.48226 16.0486 5.03417 16.5897C5.58609 17.1307 5.89615 17.8646 5.89615 18.6297V31.0317C5.89749 31.4114 5.82236 31.7876 5.67507 32.1388C5.52777 32.49 5.31121 32.8093 5.03779 33.0782C4.76438 33.3472 4.4395 33.5606 4.08177 33.7062C3.72405 33.8518 3.34052 33.9268 2.95318 33.9268C2.16995 33.9268 1.4188 33.6218 0.864967 33.0788C0.311138 32.5359 0 31.7995 0 31.0317V18.6297C-2.33488e-06 18.25 0.076457 17.874 0.224993 17.5233C0.37353 17.1726 0.591221 16.8541 0.865584 16.5861C1.13995 16.3181 1.46558 16.1058 1.82382 15.9614C2.18206 15.817 2.56585 15.7433 2.95318 15.7446Z" fill="#A4C639"></path>
    <path d="M40.057 15.7446C40.8375 15.7446 41.5861 16.0486 42.138 16.5897C42.6899 17.1307 43 17.8646 43 18.6297V31.0317C43.0013 31.4114 42.9262 31.7876 42.7789 32.1388C42.6316 32.49 42.415 32.8093 42.1416 33.0782C41.8682 33.3472 41.5433 33.5606 41.1856 33.7062C40.8279 33.8518 40.4444 33.9268 40.057 33.9268C39.2738 33.9268 38.5226 33.6218 37.9688 33.0788C37.415 32.5359 37.1038 31.7995 37.1038 31.0317V18.6297C37.1038 18.25 37.1803 17.874 37.3288 17.5233C37.4774 17.1726 37.6951 16.8541 37.9694 16.5861C38.2438 16.3181 38.5694 16.1058 38.9277 15.9614C39.2859 15.817 39.6697 15.7433 40.057 15.7446Z" fill="#A4C639"></path>
    <path d="M8.1749 12.0581H34.7433C34.6757 9.30184 33.5048 6.68226 31.4836 4.76521L34.0485 0.497656C34.0753 0.460664 34.0936 0.418348 34.1019 0.373689C34.1103 0.32903 34.1086 0.283115 34.0969 0.239179C34.0852 0.195243 34.0638 0.154355 34.0343 0.119396C34.0047 0.0844363 33.9677 0.0562562 33.9258 0.0368408C33.8548 -0.000483829 33.7719 -0.00986479 33.6941 0.010608C33.6163 0.0310808 33.5493 0.079868 33.5069 0.147036L31.0851 4.30439C28.3256 2.19779 24.9549 1.00508 21.4591 0.898365C17.9845 1.03299 14.6384 2.22325 11.8843 4.30439L9.50332 0.187107C9.46579 0.112239 9.39997 0.0546621 9.31983 0.0266048C9.2397 -0.00145257 9.15156 0.00221937 9.07414 0.0368408C9.00488 0.0802746 8.95485 0.147693 8.93402 0.225666C8.91319 0.303639 8.92308 0.386444 8.96174 0.457585L11.4551 4.69508C9.41279 6.62849 8.2336 9.27542 8.1749 12.0581ZM25.8736 6.84889C25.8736 6.45036 26.0351 6.06816 26.3225 5.78635C26.61 5.50455 26.9998 5.34623 27.4064 5.34623C27.8129 5.34623 28.2028 5.50455 28.4902 5.78635C28.7777 6.06816 28.9391 6.45036 28.9391 6.84889C28.9391 7.24742 28.7777 7.62963 28.4902 7.91143C28.2028 8.19324 27.8129 8.35155 27.4064 8.35155C26.9998 8.35155 26.61 8.19324 26.3225 7.91143C26.0351 7.62963 25.8736 7.24742 25.8736 6.84889ZM14.49 6.84889C14.49 6.45036 14.6515 6.06816 14.939 5.78635C15.2264 5.50455 15.6163 5.34623 16.0228 5.34623C16.4293 5.34623 16.8192 5.50455 17.1067 5.78635C17.3941 6.06816 17.5556 6.45036 17.5556 6.84889C17.5556 7.24742 17.3941 7.62963 17.1067 7.91143C16.8192 8.19324 16.4293 8.35155 16.0228 8.35155C15.6163 8.35155 15.2264 8.19324 14.939 7.91143C14.6515 7.62963 14.49 7.24742 14.49 6.84889Z" fill="#A4C639"></path>
  </symbol>

   <symbol fill="none" xmlns="http://www.w3.org/2000/svg" viewBox="0 0 44 41" id="microsoft-logo">
    <path d="M20.908 19.5238H0V0H20.908V19.5238Z" fill="#F05423"></path>
    <path d="M43.9999 19.5238H23.0919V0H43.9999V19.5238Z" fill="#84C441"></path>
    <path d="M20.908 41H0V21.4762H20.908V41Z" fill="#2DABE2"></path>
    <path d="M44.0001 41H23.092V21.4762H44.0001V41Z" fill="#F9BC15"></path>
  </symbol>

  <symbol fill="none" xmlns="http://www.w3.org/2000/svg" viewBox="0 0 22 41" id="left-arrow">
    <path d="M2.0413 20.5035L21.7483 1.4144C21.8281 1.3379 21.8914 1.24683 21.9346 1.14646C21.9778 1.04608 22 0.938398 22 0.829635C22 0.720871 21.9778 0.613187 21.9346 0.512814C21.8914 0.41244 21.8281 0.321369 21.7483 0.24487C21.6686 0.167255 21.5738 0.105671 21.4694 0.0636507C21.365 0.0216304 21.2532 0 21.1401 0C21.0271 0 20.9153 0.0216304 20.8109 0.0636507C20.7065 0.105671 20.6117 0.167255 20.532 0.24487L0.252535 19.9088C0.17249 19.9862 0.108978 20.0781 0.0656429 20.1793C0.0223074 20.2805 0 20.389 0 20.4985C0 20.6081 0.0223074 20.7166 0.0656429 20.8178C0.108978 20.919 0.17249 21.0109 0.252535 21.0883L20.532 40.7621C20.6967 40.9157 20.9167 41.001 21.1453 41C21.3139 40.9985 21.4783 40.9488 21.6181 40.8572C21.7578 40.7656 21.8666 40.6362 21.9309 40.485C21.9952 40.3339 22.0122 40.1677 21.9797 40.0072C21.9473 39.8467 21.8668 39.6991 21.7483 39.5827L2.0413 20.5035Z" fill="#283645"></path>
  </symbol>

  <symbol fill="none" xmlns="http://www.w3.org/2000/svg" viewBox="0 0 22 41" id="right-arrow">
    <path d="M19.9587 20.4965L0.251671 39.5856C0.171938 39.6621 0.108643 39.7532 0.065443 39.8535C0.0222435 39.9539 0 40.0616 0 40.1704C0 40.2791 0.0222435 40.3868 0.065443 40.4872C0.108643 40.5876 0.171938 40.6786 0.251671 40.7551C0.33144 40.8327 0.426224 40.8943 0.530588 40.9363C0.634953 40.9784 0.746847 41 0.859852 41C0.972857 41 1.08475 40.9784 1.18911 40.9363C1.29348 40.8943 1.38826 40.8327 1.46803 40.7551L21.7475 21.0912C21.8275 21.0138 21.891 20.9219 21.9344 20.8207C21.9777 20.7195 22 20.611 22 20.5015C22 20.3919 21.9777 20.2834 21.9344 20.1822C21.891 20.081 21.8275 19.9891 21.7475 19.9117L1.46803 0.237877C1.30326 0.0842934 1.08329 -0.00102615 0.85474 7.62939e-06C0.6861 0.00154114 0.52166 0.0511971 0.381939 0.14278C0.24222 0.234364 0.133411 0.363811 0.069088 0.51498C0.00476646 0.666149 -0.0122204 0.83234 0.0202503 0.992809C0.052721 1.15328 0.133209 1.30093 0.251671 1.41732L19.9587 20.4965Z" fill="#283645"></path>
  </symbol>

  <symbol fill="none" xmlns="http://www.w3.org/2000/svg" viewBox="0 0 18 14" id="twitter">
    <path d="M11.5641 0.168904C12.2458 -0.0461515 12.9837 -0.0560928 13.6719 0.140507C14.3602 0.337107 14.9633 0.730138 15.3947 1.26319C16.1053 1.05385 16.8055 0.815959 17.5263 0.606617C17.5164 0.925848 17.4299 1.23907 17.2732 1.52372C17.1165 1.80837 16.8935 2.05738 16.6201 2.2528C16.8726 2.27877 17.1281 2.25112 17.3673 2.17197C17.6064 2.09281 17.8228 1.96424 18 1.79606C17.901 2.20987 17.6999 2.59695 17.4123 2.92708C17.1247 3.2572 16.7585 3.52144 16.3421 3.69916C16.095 9.96988 12.9748 14.1662 5.65332 13.9949H5.14874C4.70595 13.9949 0.731121 13.5667 0 12.2441C1.75201 12.4899 3.53888 12.0976 4.98398 11.1498C3.95423 10.8643 2.13158 10.7026 1.82265 8.40934C2.2108 8.54337 2.6321 8.57306 3.03776 8.49498C1.76087 7.70519 0.339817 7.0391 0.422197 4.99327C0.819634 5.29882 1.3269 5.45507 1.84325 5.43098C1.10183 5.20261 -0.24714 2.30989 0.895881 0.825474C2.82151 2.54778 4.86041 4.17493 8.48512 4.3367C8.71167 2.20522 9.68993 0.777896 11.5641 0.168904Z" fill="#D22856"></path>
  </symbol>

  <symbol fill="none" xmlns="http://www.w3.org/2000/svg" viewBox="0 0 9 18" id="facebook">
    <path d="M6.50865 3.19324H9V0H6.02076C2.76125 0.171067 1.59862 2.27138 2.07612 5.81626H0V9.15206H2.07612V18H6.02076V9.15206H8.97924V5.81626H6.01038C5.98962 4.81837 5.96886 3.52587 6.50865 3.19324Z" fill="#D22856"></path>
  </symbol>

  <symbol fill="none" xmlns="http://www.w3.org/2000/svg" viewBox="0 0 15 13" id="youtube">
    <path d="M1.83356 12.8089C1.64633 12.9278 1.42471 12.9941 1.19626 12.9996C0.967817 13.0051 0.74263 12.9495 0.548717 12.8398C0.354804 12.7301 0.200724 12.571 0.105646 12.3824C0.010569 12.1938 -0.0213097 11.984 0.0139762 11.779V1.22097C-0.0213097 1.01605 0.010569 0.806234 0.105646 0.617628C0.200724 0.429021 0.354804 0.269949 0.548717 0.1602C0.74263 0.0504516 0.967817 -0.00512927 1.19626 0.000372265C1.42471 0.0058738 1.64633 0.0722149 1.83356 0.191142L14.2333 5.69284C15.2556 6.13817 15.2556 6.86183 14.2333 7.30716L1.83356 12.8089Z" fill="#D22856"></path>
  </symbol>

  <symbol xmlns="http://www.w3.org/2000/svg" viewBox="0 0 147 40" id="logo-footer">
    <path d="M72.1933 18.4251C72.1932 18.0924 72.3255 17.7728 72.562 17.5348C72.7985 17.2967 73.1204 17.1591 73.4588 17.1514H80.6703C85.7826 17.1514 89.1473 19.8272 89.1473 24.2113V24.2705C89.1473 29.0693 85.0695 31.5575 80.2484 31.5575H74.7544V38.2916C74.7702 38.4663 74.7488 38.6423 74.6916 38.8084C74.6344 38.9745 74.5426 39.1271 74.4222 39.2565C74.3017 39.3859 74.1552 39.4892 73.992 39.5599C73.8287 39.6306 73.6522 39.6671 73.4738 39.6671C73.2954 39.6671 73.119 39.6306 72.9557 39.5599C72.7925 39.4892 72.6459 39.3859 72.5255 39.2565C72.405 39.1271 72.3133 38.9745 72.2561 38.8084C72.1989 38.6423 72.1775 38.4663 72.1933 38.2916V18.4251ZM80.3489 29.2865C84.0952 29.2865 86.556 27.3117 86.556 24.3495V24.2903C86.556 21.1108 84.1354 19.4619 80.5297 19.4619H74.8047V29.247L80.3489 29.2865Z"></path>
    <path d="M94.0186 18.2671C94.0028 18.0924 94.0242 17.9164 94.0814 17.7502C94.1386 17.5841 94.2304 17.4315 94.3508 17.3021C94.4713 17.1728 94.6178 17.0695 94.781 16.9988C94.9443 16.9281 95.1208 16.8916 95.2992 16.8916C95.4776 16.8916 95.654 16.9281 95.8173 16.9988C95.9806 17.0695 96.1271 17.1728 96.2475 17.3021C96.368 17.4315 96.4597 17.5841 96.5169 17.7502C96.5741 17.9164 96.5955 18.0924 96.5798 18.2671V38.2915C96.5955 38.4662 96.5741 38.6422 96.5169 38.8084C96.4597 38.9745 96.368 39.1271 96.2475 39.2565C96.1271 39.3858 95.9806 39.4891 95.8173 39.5598C95.654 39.6305 95.4776 39.667 95.2992 39.667C95.1208 39.667 94.9443 39.6305 94.781 39.5598C94.6178 39.4891 94.4713 39.3858 94.3508 39.2565C94.2304 39.1271 94.1386 38.9745 94.0814 38.8084C94.0242 38.6422 94.0028 38.4662 94.0186 38.2915V18.2671Z"></path>
    <path d="M103.199 18.2963C103.206 17.9697 103.343 17.6587 103.579 17.4285C103.815 17.1984 104.132 17.0671 104.464 17.0621H104.816C105.077 17.0673 105.332 17.137 105.559 17.2647C105.785 17.3923 105.975 17.5739 106.111 17.7927L119.862 35.0229V18.2371C119.862 17.9123 119.993 17.6009 120.226 17.3713C120.46 17.1417 120.777 17.0127 121.107 17.0127C121.437 17.0127 121.754 17.1417 121.988 17.3713C122.221 17.6009 122.352 17.9123 122.352 18.2371V38.3306C122.358 38.4834 122.332 38.6357 122.275 38.7782C122.219 38.9207 122.134 39.0504 122.025 39.1594C121.916 39.2685 121.785 39.3545 121.641 39.4123C121.497 39.4702 121.343 39.4986 121.187 39.4958H121.057C120.79 39.4777 120.531 39.3987 120.301 39.265C120.071 39.1313 119.876 38.9466 119.731 38.7256L105.67 21.0907V38.3306C105.667 38.6489 105.541 38.9542 105.317 39.1838C105.093 39.4134 104.788 39.5498 104.464 39.5649C104.136 39.5597 103.823 39.4271 103.593 39.1959C103.363 38.9647 103.236 38.6537 103.239 38.3306V18.2963H103.199Z"></path>
    <path d="M128.74 18.2671C128.724 18.0924 128.746 17.9164 128.803 17.7502C128.86 17.5841 128.952 17.4315 129.072 17.3021C129.193 17.1728 129.339 17.0695 129.503 16.9988C129.666 16.9281 129.842 16.8916 130.021 16.8916C130.199 16.8916 130.376 16.9281 130.539 16.9988C130.702 17.0695 130.849 17.1728 130.969 17.3021C131.09 17.4315 131.181 17.5841 131.239 17.7502C131.296 17.9164 131.317 18.0924 131.301 18.2671V30.4417L144.198 17.4377C144.462 17.1686 144.822 17.0095 145.202 16.9933C145.531 17.0059 145.842 17.1419 146.072 17.3734C146.302 17.6048 146.433 17.9141 146.438 18.2375C146.43 18.4056 146.39 18.5708 146.317 18.7233C146.245 18.8758 146.142 19.0127 146.016 19.1261L137.981 26.9463L146.648 37.3733C146.875 37.6312 147 37.9606 147 38.3014C146.996 38.4721 146.958 38.6404 146.887 38.7965C146.817 38.9527 146.716 39.0936 146.59 39.2111C146.464 39.3286 146.315 39.4203 146.153 39.4811C145.991 39.5419 145.818 39.5705 145.644 39.5653C145.441 39.5598 145.243 39.5045 145.068 39.4045C144.892 39.3044 144.745 39.1629 144.64 38.9926L136.193 28.6348L131.301 33.4335V38.2718C131.301 38.4365 131.268 38.5995 131.204 38.7517C131.14 38.9038 131.046 39.0421 130.928 39.1585C130.809 39.2749 130.669 39.3673 130.514 39.4303C130.359 39.4933 130.193 39.5258 130.026 39.5258C129.858 39.5258 129.692 39.4933 129.538 39.4303C129.383 39.3673 129.242 39.2749 129.124 39.1585C129.005 39.0421 128.911 38.9038 128.847 38.7517C128.783 38.5995 128.75 38.4365 128.75 38.2718V18.2671H128.74Z"></path>
    <path d="M98.9401 9.74577C97.9749 9.74578 97.0491 9.36951 96.3656 8.69946C95.6822 8.02942 95.2969 7.12028 95.2942 6.17139C95.2942 7.11937 94.9111 8.02853 94.2293 8.69886C93.5474 9.36919 92.6226 9.74577 91.6583 9.74577C92.6235 9.74839 93.5483 10.1272 94.2299 10.7991C94.9115 11.471 95.2942 12.3811 95.2942 13.33C95.2969 12.3802 95.6818 11.4701 96.365 10.7985C97.0482 10.1268 97.974 9.74838 98.9401 9.74577Z" fill="#D22856"></path>
    <path d="M43.287 19.0665C43.5381 19.0665 43.7792 19.0665 44.0202 19.0665C43.8019 18.6987 43.4897 18.3932 43.1145 18.1802C42.7393 17.9672 42.3141 17.8541 41.8809 17.852C41.4627 17.8517 41.055 17.7231 40.7147 17.4842C40.3745 17.2452 40.1185 16.9078 39.9826 16.519C39.2588 16.7243 38.5561 16.9954 37.8834 17.3287H38.0743C38.607 17.3287 39.118 17.5368 39.4947 17.9071C39.8714 18.2775 40.083 18.7798 40.083 19.3035C40.088 19.3989 40.088 19.4945 40.083 19.5899C41.109 19.2223 42.1953 19.0449 43.287 19.0665Z" fill="#D22856"></path>
    <path d="M60.7332 27.6472L55.5406 6.56621C55.179 4.24582 52.9291 0 46.9028 0C46.5033 0 46.1201 0.156044 45.8375 0.433804C45.555 0.711564 45.3962 1.08829 45.3962 1.4811C45.3962 1.87391 45.555 2.25063 45.8375 2.52839C46.1201 2.80615 46.5033 2.9622 46.9028 2.9622C51.7741 2.9622 52.4973 6.6452 52.5676 7.05003L57.3484 26.5018H55.2493C55.0321 24.805 54.4439 23.1744 53.525 21.7222C52.6061 20.2701 51.3783 19.0307 49.926 18.0892C49.4712 18.2774 49.0829 18.5932 48.8096 18.9971C48.5363 19.401 48.3901 19.8751 48.3893 20.3602C48.3948 20.4457 48.3948 20.5314 48.3893 20.6169C49.6107 21.4404 50.6131 22.5401 51.3122 23.8236C52.0113 25.1072 52.3867 26.537 52.4069 27.9928C52.4008 28.4894 52.3538 28.9847 52.2663 29.4739C51.9375 31.5714 50.8559 33.484 49.2173 34.8657C47.5786 36.2474 45.4911 37.007 43.3322 37.007C41.1734 37.007 39.0859 36.2474 37.4472 34.8657C35.8086 33.484 34.727 31.5714 34.3982 29.4739C34.3107 28.9847 34.2636 28.4894 34.2576 27.9928C34.2733 26.6229 34.5993 25.2737 35.2118 24.0432C34.7037 24.0081 34.2282 23.7847 33.8814 23.4181C33.5346 23.0515 33.3424 22.569 33.3436 22.0684C33.3453 21.889 33.277 21.7159 33.1528 21.5846C32.181 23.0752 31.5662 24.7633 31.3549 26.5215H29.4868C29.1663 23.6174 27.7658 20.9319 25.5542 18.9809C23.3427 17.0298 20.4759 15.9507 17.5044 15.9507C14.5329 15.9507 11.6662 17.0298 9.45463 18.9809C7.24307 20.9319 5.84259 23.6174 5.5221 26.5215H3.44302L8.23394 7.05003C8.29421 6.6452 9.0475 2.9622 13.8987 2.9622C14.2983 2.9622 14.6815 2.80615 14.964 2.52839C15.2465 2.25063 15.4053 1.87391 15.4053 1.4811C15.4053 1.08829 15.2465 0.711564 14.964 0.433804C14.6815 0.156044 14.2983 0 13.8987 0C7.87236 0 5.62254 4.24582 5.26096 6.56621L0.0582358 27.6472C-0.00612168 27.8617 -0.0173251 28.0883 0.0255611 28.308C0.0684473 28.5277 0.164178 28.7341 0.304759 28.91C0.44534 29.0859 0.62669 29.2262 0.833664 29.3191C1.04064 29.4121 1.26723 29.455 1.49451 29.4443H5.51206C5.59378 30.055 5.72135 30.659 5.89372 31.2512C5.95717 31.1429 5.99172 31.0206 5.99416 30.8957C5.99416 30.372 6.2058 29.8697 6.58252 29.4993C6.95923 29.129 7.47017 28.9209 8.00293 28.9209C8.16525 28.9248 8.32675 28.9446 8.48504 28.9802C8.44252 28.6526 8.41904 28.323 8.41473 27.9928C8.41742 27.4964 8.46109 27.0011 8.5453 26.5117C8.86708 24.4074 9.94627 22.4864 11.5867 21.0981C13.2271 19.7097 15.3198 18.9461 17.4843 18.9461C19.6489 18.9461 21.7416 19.7097 23.382 21.0981C25.0224 22.4864 26.1016 24.4074 26.4234 26.5117C26.5076 27.0011 26.5513 27.4964 26.554 27.9928C26.5638 29.6507 26.1017 31.2782 25.2199 32.6915C24.3381 34.1047 23.0717 35.2472 21.5639 35.9899C20.0561 36.7326 18.3671 37.0458 16.6877 36.8942C15.0083 36.7425 13.4056 36.132 12.0607 35.1317C11.6982 35.4412 11.235 35.6128 10.755 35.6155C10.5569 35.6181 10.3679 35.6973 10.2288 35.8359C10.0897 35.9745 10.0117 36.1613 10.0117 36.356C10.009 36.6321 9.94739 36.9046 9.83092 37.1558C11.9797 38.9066 14.6835 39.8636 17.4743 39.8613C20.4223 39.8738 23.2728 38.8236 25.4864 36.9095C27.7 34.9953 29.1232 32.35 29.4868 29.4739H31.3147C31.6456 32.3691 33.0499 35.0431 35.2593 36.9848C37.4688 38.9266 40.3285 40 43.2921 40C46.2557 40 49.1154 38.9266 51.3248 36.9848C53.5343 35.0431 54.9385 32.3691 55.2694 29.4739H59.2869C59.5191 29.4904 59.7519 29.4503 59.9647 29.3573C60.1774 29.2642 60.3635 29.121 60.5065 28.9404C60.6495 28.7598 60.7451 28.5473 60.7846 28.3217C60.8241 28.0961 60.8065 27.8645 60.7332 27.6472Z" fill="#D22856"></path>
    <path d="M50.9203 15.9168C50.3273 15.9181 49.7398 15.8044 49.1915 15.5822C48.6432 15.36 48.1448 15.0336 47.725 14.6218C47.3052 14.21 46.9721 13.7208 46.7448 13.1823C46.5176 12.6437 46.4006 12.0664 46.4006 11.4834C46.3979 12.6601 45.9206 13.7878 45.0733 14.6189C44.2259 15.45 43.0778 15.9168 41.8809 15.9168C43.0788 15.9194 44.2268 16.3884 45.0739 17.2211C45.9209 18.0538 46.3979 19.1825 46.4006 20.3601C46.4006 19.1817 46.8768 18.0515 47.7244 17.2182C48.572 16.385 49.7216 15.9168 50.9203 15.9168Z" fill="#283645"></path>
    <path d="M38.0743 19.3828C37.3417 19.3828 36.6392 19.0967 36.1212 18.5875C35.6032 18.0783 35.3122 17.3876 35.3122 16.6675C35.3122 17.3859 35.0226 18.0751 34.5068 18.584C33.9909 19.093 33.291 19.3802 32.5602 19.3828C33.2901 19.3828 33.99 19.6679 34.5062 20.1752C35.0223 20.6826 35.3122 21.3708 35.3122 22.0883C35.3149 21.3699 35.607 20.6817 36.1247 20.1746C36.6424 19.6675 37.3435 19.3828 38.0743 19.3828Z" fill="#283645"></path>
    <path d="M10.785 33.6406C10.056 33.6354 9.35856 33.347 8.84491 32.8384C8.33126 32.3297 8.04302 31.642 8.04303 30.9253C8.04304 31.6437 7.75342 32.3329 7.2376 32.8419C6.72178 33.3508 6.02182 33.638 5.29102 33.6406C6.02182 33.6433 6.72178 33.9305 7.2376 34.4394C7.75342 34.9484 8.04304 35.6375 8.04303 36.356C8.04302 35.6392 8.33126 34.9516 8.84491 34.4429C9.35856 33.9342 10.056 33.6459 10.785 33.6406Z" fill="#283645"></path>
  </symbol>

  <symbol xmlns="http://www.w3.org/2000/svg" viewBox="0 0 27 34" id="html-academy">
    <path d="M13.6426 0.0157537L13.5 0L0 1.40733V26.0129L13.5 34L27 26.0129V1.40733L13.6426 0.0157537ZM25.2344 25.0151L13.5 31.9573L1.76561 25.0151V14.9293L13.4507 21.8451L13.4701 23.0984L5.45351 18.3548L5.44295 19.5801L13.4894 24.3885L13.5088 25.675L5.46408 20.9174L5.45351 22.1427L13.5 26.9511L21.6239 22.1182V20.8929V16.909L25.2432 14.7595L25.2344 25.0151ZM25.2344 13.4519L22.0147 15.3319L20.5325 16.2071L13.4666 12.0201L13.456 13.2454L19.4957 16.818L19.4429 16.8495L19.3126 16.9247L18.4536 17.4166L13.4666 14.4689L13.456 15.6942L17.3921 18.0222L16.4591 18.6314L16.438 18.6436L13.4666 16.902L13.456 18.1273L15.4029 19.2615L13.4155 20.4483L1.7973 13.5762L13.4349 6.61831L25.2344 13.4519ZM25.2344 12.2266L13.4401 5.31075L1.76561 12.2196V2.9897L13.5 1.76442L25.2344 2.9897V12.2266Z"></path>
  </symbol>

  <symbol fill="none" xmlns="http://www.w3.org/2000/svg" viewBox="0 0 20 19" id="phone-icon">
    <path d="M10.0408 0C6.46361 0 2.90684 0.608386 1.58197 1.8155C0.624506 2.9164 0.0701613 4.28212 0.00231714 5.70724C-0.000772379 5.76193 -0.000772379 5.81673 0.00231714 5.87141C0.00231714 6.08143 0.0903626 6.28284 0.247084 6.43135C0.403806 6.57985 0.616367 6.66328 0.838005 6.66328L4.07884 6.4122H4.16037C4.26878 6.41094 4.37587 6.38946 4.47551 6.34898C4.57516 6.3085 4.66541 6.24982 4.74112 6.17628C4.81683 6.10275 4.87651 6.0158 4.91676 5.92041C4.95701 5.82502 4.97703 5.72305 4.97568 5.62033V4.04625C4.97433 3.93131 4.99706 3.81725 5.04255 3.71069C5.08804 3.60412 5.15539 3.50717 5.2407 3.42544C5.326 3.34371 5.42757 3.27882 5.53952 3.23454C5.65148 3.19026 5.77159 3.16746 5.8929 3.16747H14.046C14.2919 3.16747 14.5278 3.26006 14.7017 3.42486C14.8757 3.58966 14.9734 3.81318 14.9734 4.04625V5.60102C14.9733 5.80773 15.0585 6.00627 15.2109 6.15423C15.3632 6.30219 15.5706 6.38784 15.7887 6.39288H15.8804L19.162 6.64396C19.2717 6.64396 19.3804 6.62348 19.4818 6.58369C19.5832 6.54389 19.6753 6.48556 19.7529 6.41203C19.8305 6.3385 19.8921 6.2512 19.9341 6.15513C19.9761 6.05906 19.9977 5.95609 19.9977 5.8521C20.0008 5.79741 20.0008 5.74261 19.9977 5.68793C19.9242 4.27608 19.378 2.92311 18.4384 1.82516C17.1951 0.608386 13.6179 0 10.0408 0ZM10.0408 10.3039C9.7102 10.3039 9.38705 10.3968 9.1122 10.5708C8.83734 10.7449 8.62312 10.9922 8.49662 11.2816C8.37011 11.571 8.33701 11.8894 8.4015 12.1966C8.46599 12.5039 8.62518 12.7861 8.85892 13.0075C9.09267 13.229 9.39048 13.3799 9.7147 13.441C10.0389 13.5021 10.375 13.4707 10.6804 13.3509C10.9858 13.231 11.2468 13.028 11.4305 12.7676C11.6141 12.5071 11.7121 12.2009 11.7121 11.8877C11.7135 11.6793 11.6712 11.4728 11.5877 11.2801C11.5042 11.0874 11.3811 10.9123 11.2256 10.7649C11.0702 10.6176 10.8854 10.501 10.682 10.4219C10.4786 10.3427 10.2606 10.3027 10.0408 10.3039ZM8.78723 6.75985V5.79416C8.78723 5.53804 8.67986 5.29241 8.48874 5.11131C8.29761 4.9302 8.03839 4.82846 7.7681 4.82846C7.49781 4.82846 7.23859 4.9302 7.04747 5.11131C6.85634 5.29241 6.74897 5.53804 6.74897 5.79416V6.75985L1.02145 12.4478C0.818967 12.6306 0.658375 12.8511 0.54967 13.0953C0.440965 13.3395 0.386473 13.6023 0.389587 13.8673V15.4511C0.389579 15.872 0.565344 16.2758 0.878498 16.5744C1.19165 16.8729 1.61675 17.0419 2.06096 17.0445H2.47881V18.0102C2.47881 18.1402 2.50583 18.2689 2.55832 18.389C2.61082 18.5091 2.68777 18.6182 2.78477 18.7101C2.88177 18.802 2.99692 18.8749 3.12366 18.9247C3.2504 18.9744 3.38624 19 3.52342 19C3.6606 19 3.79643 18.9744 3.92317 18.9247C4.04991 18.8749 4.16507 18.802 4.26207 18.7101C4.35907 18.6182 4.43601 18.5091 4.48851 18.389C4.54101 18.2689 4.56803 18.1402 4.56803 18.0102V17.0445H15.4727V18.0102C15.4727 18.2727 15.5828 18.5245 15.7787 18.7101C15.9746 18.8957 16.2403 19 16.5173 19C16.7944 19 17.0601 18.8957 17.256 18.7101C17.4519 18.5245 17.562 18.2727 17.562 18.0102V17.0445H17.9798C18.2001 17.0445 18.4183 17.0032 18.6218 16.923C18.8252 16.8428 19.0099 16.7253 19.1653 16.5772C19.3206 16.4291 19.4435 16.2534 19.5269 16.0601C19.6103 15.8669 19.6525 15.6599 19.6512 15.4511V13.8673C19.6556 13.603 19.6027 13.3406 19.4958 13.0964C19.3888 12.8523 19.2301 12.6315 19.0295 12.4478L13.3835 6.75985V5.79416C13.3835 5.53163 13.2735 5.27987 13.0776 5.09424C12.8817 4.90861 12.616 4.80432 12.3389 4.80432C12.0619 4.80432 11.7962 4.90861 11.6003 5.09424C11.4044 5.27987 11.2943 5.53163 11.2943 5.79416V6.75985H8.78723ZM10.0408 8.69123C10.7019 8.69123 11.3482 8.877 11.8979 9.22505C12.4476 9.57309 12.8761 10.0678 13.1291 10.6466C13.3821 11.2253 13.4483 11.8622 13.3193 12.4766C13.1903 13.0911 12.8719 13.6555 12.4044 14.0984C11.937 14.5414 11.3413 14.8431 10.6929 14.9653C10.0445 15.0875 9.37236 15.0248 8.76155 14.7851C8.15074 14.5453 7.62867 14.1393 7.26137 13.6185C6.89406 13.0976 6.69801 12.4852 6.69801 11.8587C6.69801 11.0186 7.05019 10.213 7.67708 9.61896C8.30397 9.02495 9.15421 8.69123 10.0408 8.69123Z" fill="#D22856"></path>
  </symbol>

  <symbol fill="none" xmlns="http://www.w3.org/2000/svg" viewBox="0 0 18 13" id="mail-icon">
    <path d="M14.9101 1.68071C16.1101 0.752143 15.8201 0 14.2601 0H3.73007C2.17007 0 1.88007 0.761428 3.07007 1.68071L6.82007 4.57786C7.44102 5.02891 8.2067 5.27397 8.99507 5.27397C9.78344 5.27397 10.5491 5.02891 11.1701 4.57786L14.9101 1.68071Z" fill="#D22856"></path>
    <path d="M11.9101 6.5L9.70007 8.24571C9.61906 8.29331 9.53164 8.33078 9.44007 8.35714L9.34007 8.40357C9.23142 8.44582 9.11701 8.47395 9.00007 8.48714L8.67007 8.43143L8.55007 8.35714C8.46475 8.3229 8.38417 8.27925 8.31007 8.22714L6.08007 6.5L2.18007 3.52857C1.00007 2.6 7.0672e-05 3.02714 7.0672e-05 4.47571V10.335C-0.002565 10.6825 0.0685454 11.0272 0.209341 11.3492C0.350138 11.6712 0.557862 11.9643 0.820654 12.2118C1.08345 12.4592 1.39616 12.6562 1.74093 12.7915C2.08571 12.9267 2.4558 12.9976 2.83007 13H15.1501C15.526 13 15.8983 12.9309 16.2454 12.7968C16.5924 12.6626 16.9075 12.466 17.1724 12.2183C17.4373 11.9706 17.6469 11.6767 17.7889 11.3534C17.9309 11.0302 18.0027 10.6841 18.0001 10.335V4.47571C18.0001 3.02714 17.0001 2.61857 15.8201 3.54714L11.9101 6.5Z" fill="#D22856"></path>
  </symbol>

  <symbol xmlns="http://www.w3.org/2000/svg" viewBox="0 0 13 12" id="like">
    <path d="M6.46867 12C6.3589 12.0014 6.25012 11.9798 6.14988 11.9367C6.04963 11.8935 5.96033 11.8298 5.88815 11.75C1.95926 7.42 1.03665 6.44 0.860416 6.17C0.307088 5.49497 0.00416162 4.66056 0 3.8C0.00441359 3.07425 0.223059 2.36473 0.63034 1.7545C1.03762 1.14428 1.61668 0.658598 2.29973 0.354328C2.98278 0.0500576 3.74155 -0.0602132 4.48721 0.036425C5.23287 0.133063 5.93456 0.432611 6.51014 0.9C7.22774 0.319491 8.13412 0.00090711 9.07066 0C10.1136 0.00264761 11.1129 0.404172 11.8494 1.11652C12.5859 1.82888 12.9995 2.79391 12.9995 3.8C13.014 4.67715 12.6845 5.5272 12.0769 6.18L7.03883 11.74C6.9678 11.8185 6.88016 11.8814 6.78182 11.9246C6.68348 11.9677 6.5767 11.99 6.46867 11.99V12ZM2.07329 5.28C2.29099 5.54 4.63381 8.12 6.46867 10.14L10.947 5.2C11.3073 4.81798 11.5005 4.3163 11.486 3.8C11.486 3.18205 11.2316 2.5894 10.7786 2.15244C10.3256 1.71548 9.71126 1.47 9.07066 1.47C8.69007 1.47297 8.31512 1.55909 7.97398 1.7219C7.63285 1.8847 7.33439 2.11996 7.10103 2.41C7.02566 2.49603 6.9321 2.56553 6.82661 2.61382C6.72113 2.66211 6.60615 2.68809 6.48941 2.69C6.37337 2.68847 6.25936 2.6605 6.15667 2.60836C6.05398 2.55622 5.96552 2.4814 5.89852 2.39C5.66784 2.10104 5.37087 1.86758 5.03093 1.70796C4.69099 1.54833 4.31732 1.46688 3.93926 1.47C3.48505 1.47534 3.04153 1.6036 2.65919 1.84016C2.27684 2.07673 1.97103 2.41211 1.77658 2.8081C1.58213 3.2041 1.50684 3.64481 1.5593 4.08006C1.61176 4.51531 1.78985 4.9276 2.07329 5.27V5.28Z"></path>
  </symbol>

  <symbol xmlns="http://www.w3.org/2000/svg" viewBox="0 0 44 44" id="stroke">
    <path d="M32 28H36V12C36 10.9391 35.5786 9.92172 34.8284 9.17157C34.0783 8.42143 33.0609 8 32 8H16V12H32V28ZM12 32V0H8V8H0V12H8V32C8 33.0609 8.42143 34.0783 9.17157 34.8284C9.92172 35.5786 10.9391 36 12 36H32V44H36V36H44V32H12Z"></path>
  </symbol>

  <symbol xmlns="http://www.w3.org/2000/svg" viewBox="0 0 48 43" id="fill">
    <path d="M33.12 17.88L15.24 0L12.41 2.83L17.17 7.59L6.88 17.88C6.3182 18.4425 6.00264 19.205 6.00264 20C6.00264 20.795 6.3182 21.5575 6.88 22.12L17.88 33.12C18.4425 33.6818 19.205 33.9974 20 33.9974C20.795 33.9974 21.5575 33.6818 22.12 33.12L33.12 22.12C33.6818 21.5575 33.9974 20.795 33.9974 20C33.9974 19.205 33.6818 18.4425 33.12 17.88ZM10.41 20L20 10.42L29.59 20H10.41ZM38 23C38 23 34 27.33 34 30C34 31.0609 34.4214 32.0783 35.1716 32.8284C35.9217 33.5786 36.9391 34 38 34C39.0609 34 40.0783 33.5786 40.8284 32.8284C41.5786 32.0783 42 31.0609 42 30C42 27.33 38 23 38 23Z"></path>
    <path d="M48 40H0V43H48V40Z"></path>
  </symbol>

  <symbol xmlns="http://www.w3.org/2000/svg" viewBox="0 0 32 32" id="contrast">
    <path d="M16 4C18.3734 4 20.6935 4.70379 22.6669 6.02236C24.6402 7.34094 26.1783 9.21509 27.0866 11.4078C27.9948 13.6005 28.2325 16.0133 27.7694 18.3411C27.3064 20.6689 26.1635 22.8071 24.4853 24.4853C22.8071 26.1635 20.6689 27.3064 18.3411 27.7694C16.0133 28.2324 13.6005 27.9948 11.4078 27.0866C9.21509 26.1783 7.34095 24.6402 6.02237 22.6668C4.70379 20.6935 4.00001 18.3734 4.00001 16C4.00001 12.8174 5.26429 9.76515 7.51473 7.51472C9.76516 5.26428 12.8174 4 16 4ZM16 0C12.8355 0 9.74207 0.938384 7.11088 2.69649C4.4797 4.45459 2.42894 6.95345 1.21793 9.87706C0.0069325 12.8007 -0.309921 16.0177 0.307443 19.1214C0.924806 22.2251 2.44866 25.0761 4.6863 27.3137C6.92394 29.5513 9.77487 31.0752 12.8786 31.6926C15.9823 32.3099 19.1993 31.9931 22.1229 30.7821C25.0466 29.5711 27.5454 27.5203 29.3035 24.8891C31.0616 22.2579 32 19.1645 32 16C32 11.7565 30.3143 7.68687 27.3137 4.68629C24.3131 1.68571 20.2435 0 16 0Z"></path>
    <path d="M16 24.29C18.1536 24.1422 20.1708 23.1824 21.644 21.6046C23.1172 20.0268 23.9366 17.9486 23.9366 15.79C23.9366 13.6314 23.1172 11.5532 21.644 9.97538C20.1708 8.39759 18.1536 7.43782 16 7.29"></path>
  </symbol>

</svg>


